<svg width="64" height="64" viewBox="0 0 64 64" fill="none" xmlns="http://www.w3.org/2000/svg">
<path d="M0 8C0 3.58172 3.58172 0 8 0H56C60.4183 0 64 3.58172 64 8V56C64 60.4183 60.4183 64 56 64H8C3.58172 64 0 60.4183 0 56V8Z" fill="#FFC737"/>
<path fill-rule="evenodd" clip-rule="evenodd" d="M11 12C11 11.4477 11.4477 11 12 11H15.3333C15.8856 11 16.3333 11.4477 16.3333 12C16.3333 12.5523 15.8856 13 15.3333 13H13V15.3333C13 15.8856 12.5523 16.3333 12 16.3333C11.4477 16.3333 11 15.8856 11 15.3333V12ZM21 12C21 11.4477 21.4477 11 22 11H28.6667C29.219 11 29.6667 11.4477 29.6667 12C29.6667 12.5523 29.219 13 28.6667 13H22C21.4477 13 21 12.5523 21 12ZM34.3333 12C34.3333 11.4477 34.781 11 35.3333 11H42C42.5523 11 43 11.4477 43 12C43 12.5523 42.5523 13 42 13H35.3333C34.781 13 34.3333 12.5523 34.3333 12ZM47.6667 12C47.6667 11.4477 48.1144 11 48.6667 11H52C52.5523 11 53 11.4477 53 12V15.3333C53 15.8856 52.5523 16.3333 52 16.3333C51.4477 16.3333 51 15.8856 51 15.3333V13H48.6667C48.1144 13 47.6667 12.5523 47.6667 12ZM12 21C12.5523 21 13 21.4477 13 22V28.6667C13 29.219 12.5523 29.6667 12 29.6667C11.4477 29.6667 11 29.219 11 28.6667V22C11 21.4477 11.4477 21 12 21ZM52 21C52.5523 21 53 21.4477 53 22V28.6667C53 29.219 52.5523 29.6667 52 29.6667C51.4477 29.6667 51 29.219 51 28.6667V22C51 21.4477 51.4477 21 52 21ZM12 34.3333C12.5523 34.3333 13 34.781 13 35.3333V42C13 42.5523 12.5523 43 12 43C11.4477 43 11 42.5523 11 42V35.3333C11 34.781 11.4477 34.3333 12 34.3333ZM52 34.3333C52.5523 34.3333 53 34.781 53 35.3333V42C53 42.5523 52.5523 43 52 43C51.4477 43 51 42.5523 51 42V35.3333C51 34.781 51.4477 34.3333 52 34.3333ZM12 47.6667C12.5523 47.6667 13 48.1144 13 48.6667V51H15.3333C15.8856 51 16.3333 51.4477 16.3333 52C16.3333 52.5523 15.8856 53 15.3333 53H12C11.4477 53 11 52.5523 11 52V48.6667C11 48.1144 11.4477 47.6667 12 47.6667ZM52 47.6667C52.5523 47.6667 53 48.1144 53 48.6667V52C53 52.5523 52.5523 53 52 53H48.6667C48.1144 53 47.6667 52.5523 47.6667 52C47.6667 51.4477 48.1144 51 48.6667 51H51V48.6667C51 48.1144 51.4477 47.6667 52 47.6667ZM21 52C21 51.4477 21.4477 51 22 51H28.6667C29.219 51 29.6667 51.4477 29.6667 52C29.6667 52.5523 29.219 53 28.6667 53H22C21.4477 53 21 52.5523 21 52ZM34.3333 52C34.3333 51.4477 34.781 51 35.3333 51H42C42.5523 51 43 51.4477 43 52C43 52.5523 42.5523 53 42 53H35.3333C34.781 53 34.3333 52.5523 34.3333 52Z" fill="black"/>
<path fill-rule="evenodd" clip-rule="evenodd" d="M36.3301 22.5L43.2583 34.5C45.1828 37.8333 42.7772 42 38.9282 42H25.0718C21.2228 42 18.8172 37.8333 20.7417 34.5L27.6699 22.5C29.5944 19.1667 34.4056 19.1667 36.3301 22.5ZM34.5981 23.5C33.4434 21.5 30.5566 21.5 29.4019 23.5L22.4737 35.5C21.319 37.5 22.7624 40 25.0718 40H38.9282C41.2376 40 42.681 37.5 41.5263 35.5L34.5981 23.5Z" fill="black"/>
<path fill-rule="evenodd" clip-rule="evenodd" d="M36.3301 22.5L43.2583 34.5C45.1828 37.8333 42.7772 42 38.9282 42H25.0718C21.2228 42 18.8172 37.8333 20.7417 34.5L27.6699 22.5C29.5944 19.1667 34.4056 19.1667 36.3301 22.5ZM34.5981 23.5C33.4434 21.5 30.5566 21.5 29.4019 23.5L22.4737 35.5C21.319 37.5 22.7624 40 25.0718 40H38.9282C41.2376 40 42.681 37.5 41.5263 35.5L34.5981 23.5Z" fill="black"/>
</svg>
