<svg width="64" height="64" viewBox="0 0 64 64" fill="none" xmlns="http://www.w3.org/2000/svg">
<path d="M0 8C0 3.58172 3.58172 0 8 0H56C60.4183 0 64 3.58172 64 8V56C64 60.4183 60.4183 64 56 64H8C3.58172 64 0 60.4183 0 56V8Z" fill="#FF8EA9"/>
<path fill-rule="evenodd" clip-rule="evenodd" d="M22 19C20.3431 19 19 20.3431 19 22C19 23.6569 20.3431 25 22 25C23.6569 25 25 23.6569 25 22C25 20.3431 23.6569 19 22 19ZM17 22C17 19.2386 19.2386 17 22 17C24.7614 17 27 19.2386 27 22C27 24.7614 24.7614 27 22 27C19.2386 27 17 24.7614 17 22Z" fill="black"/>
<path fill-rule="evenodd" clip-rule="evenodd" d="M11 12C11 11.4477 11.4477 11 12 11H15.3333C15.8856 11 16.3333 11.4477 16.3333 12C16.3333 12.5523 15.8856 13 15.3333 13H13V15.3333C13 15.8856 12.5523 16.3333 12 16.3333C11.4477 16.3333 11 15.8856 11 15.3333V12ZM21 12C21 11.4477 21.4477 11 22 11H28.6667C29.219 11 29.6667 11.4477 29.6667 12C29.6667 12.5523 29.219 13 28.6667 13H22C21.4477 13 21 12.5523 21 12ZM34.3333 12C34.3333 11.4477 34.781 11 35.3333 11H42C42.5523 11 43 11.4477 43 12C43 12.5523 42.5523 13 42 13H35.3333C34.781 13 34.3333 12.5523 34.3333 12ZM47.6667 12C47.6667 11.4477 48.1144 11 48.6667 11H52C52.5523 11 53 11.4477 53 12V15.3333C53 15.8856 52.5523 16.3333 52 16.3333C51.4477 16.3333 51 15.8856 51 15.3333V13H48.6667C48.1144 13 47.6667 12.5523 47.6667 12ZM12 21C12.5523 21 13 21.4477 13 22V28.6667C13 29.219 12.5523 29.6667 12 29.6667C11.4477 29.6667 11 29.219 11 28.6667V22C11 21.4477 11.4477 21 12 21ZM52 21C52.5523 21 53 21.4477 53 22V28.6667C53 29.219 52.5523 29.6667 52 29.6667C51.4477 29.6667 51 29.219 51 28.6667V22C51 21.4477 51.4477 21 52 21ZM12 34.3333C12.5523 34.3333 13 34.781 13 35.3333V42C13 42.5523 12.5523 43 12 43C11.4477 43 11 42.5523 11 42V35.3333C11 34.781 11.4477 34.3333 12 34.3333ZM52 34.3333C52.5523 34.3333 53 34.781 53 35.3333V42C53 42.5523 52.5523 43 52 43C51.4477 43 51 42.5523 51 42V35.3333C51 34.781 51.4477 34.3333 52 34.3333ZM12 47.6667C12.5523 47.6667 13 48.1144 13 48.6667V51H15.3333C15.8856 51 16.3333 51.4477 16.3333 52C16.3333 52.5523 15.8856 53 15.3333 53H12C11.4477 53 11 52.5523 11 52V48.6667C11 48.1144 11.4477 47.6667 12 47.6667ZM52 47.6667C52.5523 47.6667 53 48.1144 53 48.6667V52C53 52.5523 52.5523 53 52 53H48.6667C48.1144 53 47.6667 52.5523 47.6667 52C47.6667 51.4477 48.1144 51 48.6667 51H51V48.6667C51 48.1144 51.4477 47.6667 52 47.6667ZM21 52C21 51.4477 21.4477 51 22 51H28.6667C29.219 51 29.6667 51.4477 29.6667 52C29.6667 52.5523 29.219 53 28.6667 53H22C21.4477 53 21 52.5523 21 52ZM34.3333 52C34.3333 51.4477 34.781 51 35.3333 51H42C42.5523 51 43 51.4477 43 52C43 52.5523 42.5523 53 42 53H35.3333C34.781 53 34.3333 52.5523 34.3333 52Z" fill="black"/>
<path fill-rule="evenodd" clip-rule="evenodd" d="M32 12C32.5523 12 33 12.4477 33 13L33 16.1667C33 16.719 32.5523 17.1667 32 17.1667C31.4477 17.1667 31 16.719 31 16.1667L31 13C31 12.4477 31.4477 12 32 12ZM32 21.5C32.5523 21.5 33 21.9477 33 22.5L33 28.8333C33 29.3856 32.5523 29.8333 32 29.8333C31.4477 29.8333 31 29.3856 31 28.8333L31 22.5C31 21.9477 31.4477 21.5 32 21.5ZM32 34.1667C32.5523 34.1667 33 34.6144 33 35.1667L33 41.5C33 42.0523 32.5523 42.5 32 42.5C31.4477 42.5 31 42.0523 31 41.5L31 35.1667C31 34.6144 31.4477 34.1667 32 34.1667ZM32 46.8333C32.5523 46.8333 33 47.2811 33 47.8333L33 51C33 51.5523 32.5523 52 32 52C31.4477 52 31 51.5523 31 51L31 47.8333C31 47.2811 31.4477 46.8333 32 46.8333Z" fill="black"/>
<path fill-rule="evenodd" clip-rule="evenodd" d="M12 32C12 31.4477 12.4477 31 13 31H16.1667C16.719 31 17.1667 31.4477 17.1667 32C17.1667 32.5523 16.719 33 16.1667 33H13C12.4477 33 12 32.5523 12 32ZM21.5 32C21.5 31.4477 21.9477 31 22.5 31L28.8333 31C29.3856 31 29.8333 31.4477 29.8333 32C29.8333 32.5523 29.3856 33 28.8333 33H22.5C21.9477 33 21.5 32.5523 21.5 32ZM34.1667 32C34.1667 31.4477 34.6144 31 35.1667 31H41.5C42.0523 31 42.5 31.4477 42.5 32C42.5 32.5523 42.0523 33 41.5 33H35.1667C34.6144 33 34.1667 32.5523 34.1667 32ZM46.8333 32C46.8333 31.4477 47.2811 31 47.8333 31H51C51.5523 31 52 31.4477 52 32C52 32.5523 51.5523 33 51 33H47.8333C47.2811 33 46.8333 32.5523 46.8333 32Z" fill="black"/>
<path fill-rule="evenodd" clip-rule="evenodd" d="M37 38C37 37.4477 37.4477 37 38 37H46C46.5523 37 47 37.4477 47 38V46C47 46.5523 46.5523 47 46 47H38C37.4477 47 37 46.5523 37 46V38ZM39 39V45H45V39H39Z" fill="black"/>
<path fill-rule="evenodd" clip-rule="evenodd" d="M22 36C22.2807 36 22.5484 36.1179 22.7378 36.3249L24.6249 38.3872L27.1694 39.5447C27.4248 39.6609 27.6197 39.879 27.7064 40.1459C27.7931 40.4128 27.7637 40.7038 27.6253 40.948L26.2471 43.38L25.9326 46.1576C25.901 46.4364 25.7538 46.6892 25.5267 46.8541C25.2997 47.019 25.0138 47.081 24.7389 47.0249L22 46.4656L19.2612 47.0249C18.9862 47.081 18.7003 47.019 18.4733 46.8541C18.2463 46.6892 18.099 46.4364 18.0675 46.1576L17.753 43.38L16.3747 40.948C16.2364 40.7038 16.207 40.4128 16.2937 40.1459C16.3804 39.879 16.5753 39.6609 16.8307 39.5447L19.3752 38.3872L21.2623 36.3249C21.4517 36.1179 21.7194 36 22 36ZM22 38.4813L20.7129 39.888C20.6219 39.9874 20.5118 40.0674 20.3892 40.1232L18.6536 40.9127L19.5937 42.5715C19.6601 42.6887 19.7021 42.8182 19.7173 42.9521L19.9318 44.8467L21.8 44.4652C21.932 44.4383 22.0681 44.4383 22.2001 44.4652L24.0683 44.8467L24.2828 42.9521C24.2979 42.8182 24.34 42.6887 24.4064 42.5715L25.3465 40.9127L23.6109 40.1232C23.4883 40.0674 23.3782 39.9874 23.2872 39.888L22 38.4813Z" fill="black"/>
<path fill-rule="evenodd" clip-rule="evenodd" d="M42 17C42.3573 17 42.6874 17.1906 42.8661 17.5L47.1962 25C47.3748 25.3094 47.3748 25.6906 47.1962 26C47.0176 26.3094 46.6874 26.5 46.3302 26.5H37.6699C37.3127 26.5 36.9825 26.3094 36.8039 26C36.6253 25.6906 36.6253 25.3094 36.8039 25L41.134 17.5C41.3127 17.1906 41.6428 17 42 17ZM42 20L39.402 24.5H44.5981L42 20Z" fill="black"/>
</svg>
