<svg width="25" height="24" viewBox="0 0 25 24" fill="none" xmlns="http://www.w3.org/2000/svg">
<g clip-path="url(#clip0_16_38)">
<path d="M12.3438 14.25C12.9577 14.25 13.5464 14.0129 13.9804 13.591C14.4145 13.169 14.6583 12.5967 14.6583 12C14.6583 11.4033 14.4145 10.831 13.9804 10.409C13.5464 9.98705 12.9577 9.75 12.3438 9.75C11.73 9.75 11.1413 9.98705 10.7073 10.409C10.2732 10.831 10.0294 11.4033 10.0294 12C10.0294 12.5967 10.2732 13.169 10.7073 13.591C11.1413 14.0129 11.73 14.25 12.3438 14.25Z" fill="black"/>
<path fill-rule="evenodd" clip-rule="evenodd" d="M12.3438 0C9.07005 0 5.93035 1.26428 3.61543 3.51472C1.30051 5.76516 0 8.8174 0 12C0 15.1826 1.30051 18.2348 3.61543 20.4853C5.93035 22.7357 9.07005 24 12.3438 24C15.6176 24 18.7573 22.7357 21.0723 20.4853C23.3872 18.2348 24.6877 15.1826 24.6877 12C24.6877 8.8174 23.3872 5.76516 21.0723 3.51472C18.7573 1.26428 15.6176 0 12.3438 0V0ZM2.31447 12C2.31447 9.41414 3.37113 6.93419 5.252 5.10571C7.13288 3.27723 9.68389 2.25 12.3438 2.25C15.0038 2.25 17.5548 3.27723 19.4357 5.10571C21.3165 6.93419 22.3732 9.41414 22.3732 12C22.3732 14.5859 21.3165 17.0658 19.4357 18.8943C17.5548 20.7228 15.0038 21.75 12.3438 21.75C9.68389 21.75 7.13288 20.7228 5.252 18.8943C3.37113 17.0658 2.31447 14.5859 2.31447 12Z" fill="black"/>
</g>
<defs>
<clipPath id="clip0_16_38">
<rect width="24.6877" height="24" fill="white"/>
</clipPath>
</defs>
</svg>
