<svg width="16" height="17" viewBox="0 0 16 17" fill="none" xmlns="http://www.w3.org/2000/svg">
<path d="M3.36156 10.6107C3.36156 11.5358 2.60586 12.2915 1.68078 12.2915C0.755701 12.2915 0 11.5358 0 10.6107C0 9.68563 0.755701 8.92993 1.68078 8.92993H3.36156V10.6107Z" fill="#050506"/>
<path d="M4.2085 10.6107C4.2085 9.68563 4.9642 8.92993 5.88928 8.92993C6.81436 8.92993 7.57006 9.68563 7.57006 10.6107V14.8192C7.57006 15.7443 6.81436 16.5 5.88928 16.5C4.9642 16.5 4.2085 15.7443 4.2085 14.8192V10.6107Z" fill="#050506"/>
<path d="M5.88928 3.86156C4.9642 3.86156 4.2085 3.10586 4.2085 2.18078C4.2085 1.2557 4.9642 0.5 5.88928 0.5C6.81436 0.5 7.57006 1.2557 7.57006 2.18078V3.86156H5.88928Z" fill="#050506"/>
<path d="M5.88925 4.7085C6.81433 4.7085 7.57003 5.4642 7.57003 6.38928C7.57003 7.31436 6.81433 8.07006 5.88925 8.07006H1.68078C0.755701 8.07006 0 7.31436 0 6.38928C0 5.4642 0.755701 4.7085 1.68078 4.7085H5.88925Z" fill="#050506"/>
<path d="M12.6387 6.38928C12.6387 5.4642 13.3944 4.7085 14.3195 4.7085C15.2445 4.7085 16.0002 5.4642 16.0002 6.38928C16.0002 7.31436 15.2445 8.07006 14.3195 8.07006H12.6387V6.38928Z" fill="#050506"/>
<path d="M11.7917 6.38925C11.7917 7.31433 11.036 8.07003 10.111 8.07003C9.18588 8.07003 8.43018 7.31433 8.43018 6.38925V2.18078C8.43018 1.2557 9.18588 0.5 10.111 0.5C11.036 0.5 11.7917 1.2557 11.7917 2.18078V6.38925Z" fill="#050506"/>
<path d="M10.111 13.1384C11.036 13.1384 11.7917 13.8941 11.7917 14.8192C11.7917 15.7443 11.036 16.5 10.111 16.5C9.18588 16.5 8.43018 15.7443 8.43018 14.8192V13.1384H10.111Z" fill="#050506"/>
<path d="M10.111 12.2915C9.18588 12.2915 8.43018 11.5358 8.43018 10.6107C8.43018 9.68563 9.18588 8.92993 10.111 8.92993H14.3194C15.2445 8.92993 16.0002 9.68563 16.0002 10.6107C16.0002 11.5358 15.2445 12.2915 14.3194 12.2915H10.111Z" fill="#050506"/>
</svg>
