<svg width="26" height="24" viewBox="0 0 26 24" fill="none" xmlns="http://www.w3.org/2000/svg">
<path fill-rule="evenodd" clip-rule="evenodd" d="M9.18428 0C7.79958 0.000978593 6.67892 1.07547 6.67994 2.39951C6.67892 3.72355 7.8006 4.79804 9.18531 4.79902H11.6907V2.40049C11.6917 1.07645 10.57 0.00195719 9.18428 0C9.18531 0 9.18531 0 9.18428 0V0ZM9.18428 6.4H2.50536C1.12066 6.40098 -0.00102064 7.47547 2.79691e-06 8.79951C-0.00204407 10.1235 1.11964 11.198 2.50434 11.2H9.18428C10.569 11.199 11.6907 10.1245 11.6896 8.80049C11.6907 7.47547 10.569 6.40098 9.18428 6.4Z" fill="#36C5F0"/>
<path fill-rule="evenodd" clip-rule="evenodd" d="M25.0496 8.79951C25.0506 7.47547 23.9289 6.40098 22.5442 6.4C21.1595 6.40098 20.0378 7.47547 20.0388 8.79951V11.2H22.5442C23.9289 11.199 25.0506 10.1245 25.0496 8.79951ZM18.3696 8.79951V2.39951C18.3707 1.07645 17.25 0.00195719 15.8653 0C14.4806 0.000978593 13.3589 1.07547 13.3599 2.39951V8.79951C13.3579 10.1235 14.4796 11.198 15.8643 11.2C17.249 11.199 18.3707 10.1245 18.3696 8.79951Z" fill="#2EB67D"/>
<path fill-rule="evenodd" clip-rule="evenodd" d="M15.8642 24C17.249 23.9991 18.3706 22.9246 18.3696 21.6005C18.3706 20.2765 17.249 19.202 15.8642 19.201H13.3589V21.6005C13.3579 22.9236 14.4795 23.9981 15.8642 24ZM15.8642 17.5991H22.5442C23.9289 17.5981 25.0506 16.5236 25.0496 15.1996C25.0516 13.8755 23.9299 12.801 22.5452 12.7991H15.8653C14.4806 12.8001 13.3589 13.8745 13.3599 15.1986C13.3589 16.5236 14.4795 17.5981 15.8642 17.5991Z" fill="#ECB22E"/>
<path fill-rule="evenodd" clip-rule="evenodd" d="M3.12174e-05 15.1995C-0.000992216 16.5236 1.12069 17.5981 2.5054 17.599C3.8901 17.5981 5.01178 16.5236 5.01076 15.1995V12.8H2.5054C1.12069 12.801 -0.000992216 13.8755 3.12174e-05 15.1995ZM6.67998 15.1995V21.5995C6.67793 22.9236 7.79961 23.9981 9.18432 24C10.569 23.999 11.6907 22.9245 11.6897 21.6005V15.2015C11.6917 13.8774 10.57 12.803 9.18534 12.801C7.79961 12.801 6.67896 13.8755 6.67998 15.1995C6.67998 15.1995 6.67998 15.2005 6.67998 15.1995Z" fill="#E01E5A"/>
</svg>
