<svg width="64" height="64" viewBox="0 0 64 64" fill="none" xmlns="http://www.w3.org/2000/svg">
<path d="M0 8C0 3.58172 3.58172 0 8 0H56C60.4183 0 64 3.58172 64 8V56C64 60.4183 60.4183 64 56 64H8C3.58172 64 0 60.4183 0 56V8Z" fill="#09A198"/>
<path d="M30.2679 18C31.0377 16.6667 32.9623 16.6667 33.7321 18L47.5885 42C48.3583 43.3333 47.396 45 45.8564 45H18.1436C16.604 45 15.6417 43.3333 16.4115 42L30.2679 18Z" stroke="black" stroke-width="2" stroke-linecap="round" stroke-linejoin="round" stroke-dasharray="4 4"/>
<circle cx="46" cy="43" r="9" fill="#09A198" stroke="black" stroke-width="2" stroke-linecap="round" stroke-linejoin="round"/>
<circle cx="18" cy="43" r="9" fill="#09A198" stroke="black" stroke-width="2" stroke-linecap="round" stroke-linejoin="round"/>
<circle cx="32" cy="19" r="9" fill="#09A198" stroke="black" stroke-width="2" stroke-linecap="round" stroke-linejoin="round"/>
<path d="M30 16L27.0667 18.2C26.5333 18.6 26.5333 19.4 27.0667 19.8L30 22" stroke="black" stroke-width="2" stroke-linecap="round" stroke-linejoin="round"/>
<path d="M34 22L36.9333 19.8C37.4667 19.4 37.4667 18.6 36.9333 18.2L34 16" stroke="black" stroke-width="2" stroke-linecap="round" stroke-linejoin="round"/>
<path d="M41.0547 46.0928C41.4453 46.0928 41.665 45.8975 41.8018 45.4287L42.1729 44.3301H44.7168L45.0879 45.4434C45.2197 45.9023 45.4395 46.0928 45.8545 46.0928C46.2842 46.0928 46.5918 45.8047 46.5918 45.3994C46.5918 45.2529 46.5674 45.1211 46.499 44.9307L44.5654 39.6865C44.3555 39.1104 44.0137 38.8564 43.4375 38.8564C42.8809 38.8564 42.5342 39.1201 42.3291 39.6914L40.4053 44.9307C40.3418 45.1113 40.3076 45.2773 40.3076 45.3994C40.3076 45.8242 40.5957 46.0928 41.0547 46.0928ZM42.4951 43.1875L43.4082 40.3018H43.4424L44.375 43.1875H42.4951ZM48.8379 46.083C49.4922 46.083 50.1465 45.7559 50.4395 45.1992H50.4688V45.4678C50.498 45.8877 50.7666 46.1025 51.1523 46.1025C51.5576 46.1025 51.8457 45.8584 51.8457 45.3848V42.4014C51.8457 41.3467 50.9717 40.6533 49.6289 40.6533C48.5449 40.6533 47.7051 41.0391 47.4609 41.6641C47.4121 41.7715 47.3877 41.874 47.3877 41.9863C47.3877 42.3086 47.6367 42.5332 47.9834 42.5332C48.2129 42.5332 48.3936 42.4453 48.5498 42.2695C48.8672 41.8594 49.1309 41.7178 49.5654 41.7178C50.1025 41.7178 50.4443 42.001 50.4443 42.4893V42.8359L49.126 42.9141C47.8174 42.9922 47.085 43.5439 47.085 44.4961C47.085 45.4385 47.8418 46.083 48.8379 46.083ZM49.3066 45.0527C48.8281 45.0527 48.5059 44.8086 48.5059 44.418C48.5059 44.0469 48.8086 43.8076 49.3408 43.7686L50.4443 43.7002V44.0811C50.4443 44.6475 49.9316 45.0527 49.3066 45.0527Z" fill="black"/>
<path d="M18 39L21.1273 40.506L21.8997 43.8901L19.7355 46.6039H16.2645L14.1003 43.8901L14.8727 40.506L18 39Z" stroke="black" stroke-width="2" stroke-linejoin="round"/>
</svg>
