<svg width="200px" height="35px" xmlns="http://www.w3.org/2000/svg" id="Layer_1" x="0" y="0" version="1.0" viewBox="0 0 1022 258.9" xml:space="preserve">
  <style>
    .st0{fill:#1053ff}
  </style>
  <path d="M681.9 95.5c-4.2 0-6.5 2.7-7.6 5.9l-35.7 85.3-35.1-84.8c-1.3-3.6-3.6-6.3-8.2-6.3s-8.2 3.8-8.2 8c0 1.5.6 2.9 1 4.4l40.7 92c1.9 4.2 4.8 6.9 9.2 6.9h.8c4.4 0 7.1-2.7 9-6.9l40.9-92.4c.4-1 .8-2.5.8-4 .4-4.6-3.2-8.1-7.6-8.1zM719.9 53.9c-5.2 0-9.4 3.4-9.4 8.6v2.7c0 5 4.2 8.6 9.4 8.6 5.5 0 9.7-3.6 9.7-8.6v-2.7c-.1-5.3-4.3-8.6-9.7-8.6zM719.9 95.5c-4.4 0-8 3.8-8 8.2V198c0 4.6 3.6 8.2 8.2 8.2s8-3.6 8-8.2v-94.3c-.1-4.7-3.6-8.2-8.2-8.2zM815.7 94.2c-19.9 0-32.8 11.1-41.6 24.1V58.9c0-4.6-3.6-8.2-8.2-8.2-4.4 0-8 3.6-8 8.2v139c0 4.4 3.6 8.2 8.2 8.2s8-3.8 8-8.2v-13.6c8.4 12.2 21.4 23.1 41.6 23.1 26.2 0 51.9-21 51.9-56.5v-.4c0-35.7-25.8-56.3-51.9-56.3zm35.3 56.9c0 26.2-17.2 41.8-38.2 41.8-20.2 0-39.3-16.8-39.3-42v-.4c0-24.8 19.1-41.8 39.3-41.8 20.6 0 38.2 16.4 38.2 42v.4zM985.5 149.2c0-28.8-18.3-55-50.4-55-30 0-52.1 25.2-52.1 56.5v.4c0 33.6 24.4 56.5 54.2 56.5 18.5 0 30.7-6.5 40.9-16.4 1.7-1.5 2.5-3.4 2.5-5.2 0-3.8-3.1-6.9-7.1-6.9-1.9 0-3.4.8-4.6 1.9-8 7.3-17.8 12.6-31.3 12.6-19.3 0-35.9-13.2-38.2-36.7H978c4-.1 7.5-3.3 7.5-7.7zm-86-4.4c2.1-21.2 16.4-37 35.3-37 21.6 0 33 17.2 34.6 37h-69.9zM94.3 94.2c-32.8 0-56.7 26-56.7 56.7v.4c0 30.7 23.7 56.3 56.3 56.3 32.8 0 56.9-26 56.9-56.7v-.4c0-30.7-24-56.3-56.5-56.3zm39.9 57.1c0 22.9-16.4 41.8-39.9 41.8-22.9 0-40.1-18.9-40.1-42.2v-.4c0-22.9 16.2-42 39.7-42 22.9 0 40.3 19.1 40.3 42.4v.4zM66.6 82.6c2.5 0 4-1.9 4.8-3.6 2.5-5.2 4.8-7.3 9.7-7.3 7.1 0 18.7 8.4 28.1 8.4 9 0 14.3-4.8 18.5-17 .2-1 .6-2.5.6-3.4 0-2.7-2.5-5-5.5-5-2.3 0-4 1.9-4.8 3.6-2.5 5.2-4.8 7.3-9.7 7.3-7.1 0-18.7-8.4-28.1-8.4-9 0-14.3 4.8-18.5 17-.2.8-.6 2.5-.6 3.4 0 2.7 2.5 5 5.5 5zM335.9 53.9c-5.2 0-9.4 3.4-9.4 8.6v2.7c0 5 4.2 8.6 9.4 8.6 5.5 0 9.7-3.6 9.7-8.6v-2.7c-.1-5.3-4.3-8.6-9.7-8.6zM335.9 95.5c-4.4 0-8 3.8-8 8.2V198c0 4.6 3.6 8.2 8.2 8.2s8-3.6 8-8.2v-94.3c0-4.7-3.6-8.2-8.2-8.2zM213.3 65c3.1 0 6.1.6 8.8 1 4.2.4 7.8-2.7 7.8-6.9 0-3.6-2.7-6.3-5.9-6.9-3.6-.8-7.6-1.3-12.8-1.3-9.9 0-17.8 2.9-23.3 8.4-6.1 6.1-9.4 15.5-9.4 27.9v9.4h-8.8c-3.8 0-6.9 3.1-6.9 6.9 0 4 2.9 7.1 6.9 7.1h8.8v87.1c0 4.4 3.6 8.2 8.2 8.2s8-3.8 8-8.2v-87.1h27.9c4 0 7.1-3.1 7.1-6.9 0-4-3.1-6.9-7.1-6.9h-28.1V88c-.1-15.4 6.2-23 18.8-23zM290.3 65c3.1 0 6.1.6 8.8 1 4.2.4 7.8-2.7 7.8-6.9 0-3.6-2.7-6.3-5.9-6.9-3.6-.8-7.6-1.3-12.8-1.3-9.9 0-17.8 2.9-23.3 8.4-6.1 6.1-9.4 15.5-9.4 27.9v9.4h-8.8c-3.8 0-6.9 3.1-6.9 6.9 0 4 2.9 7.1 6.9 7.1h8.8v87.1c0 4.4 3.6 8.2 8.2 8.2s8-3.8 8-8.2v-87.1h27.9c4 0 7.1-3.1 7.1-6.9 0-4-3.1-6.9-7.1-6.9h-28.1V88c-.1-15.4 6.2-23 18.8-23zM458.9 177.8c-2.1 0-3.6 1-4.6 2.1-8 7.6-17.8 13.2-30.2 13.2-22.7 0-39.9-18.7-39.9-42.2v-.4c0-23.3 16.8-42 38.8-42 13 0 21.8 5.9 29.6 13 1.3 1 3.1 1.9 5.2 1.9 4.2 0 7.8-3.4 7.8-7.8 0-2.5-1.3-4.6-2.5-5.7-9.7-8.8-21.8-15.7-39.9-15.7-31.7 0-55.6 26-55.6 56.7v.4c0 30.4 23.9 56.3 55.6 56.3 18.3 0 30.7-7.1 40.9-17.4 1.3-1.3 2.1-3.1 2.1-5 0-3.9-3.3-7.4-7.3-7.4zM528.7 94.2c-30 0-52.1 25.2-52.1 56.5v.4c0 33.6 24.4 56.5 54.2 56.5 18.5 0 30.7-6.5 40.9-16.4 1.7-1.5 2.5-3.4 2.5-5.2 0-3.8-3.1-6.9-7.1-6.9-1.9 0-3.4.8-4.6 1.9-8 7.3-17.8 12.6-31.3 12.6-19.3 0-35.9-13.2-38.2-36.7h78.5c4 0 7.6-3.1 7.6-7.6 0-28.9-18.3-55.1-50.4-55.1zM493 144.8c2.1-21.2 16.4-37 35.3-37 21.6 0 33 17.2 34.6 37H493z" class="st0"/>
</svg>