<svg width="79" height="24" viewBox="0 0 79 24" fill="none" xmlns="http://www.w3.org/2000/svg">
<path d="M26.4569 1.0678H30.0272V18.8644H26.4569V1.0678Z" fill="#080412"/>
<path d="M44.5755 5.18644V16.5763C44.5755 19.0847 44.0098 20.9492 42.8785 22.1695C41.7472 23.3898 40.0943 24 37.9198 24C36.7738 24 35.6865 23.839 34.658 23.517C33.6296 23.1949 32.7774 22.7288 32.1016 22.1186L33.468 19.2712C33.9675 19.7458 34.5993 20.1186 35.3633 20.3898C36.1273 20.678 36.8913 20.822 37.6553 20.822C38.8454 20.822 39.7196 20.5085 40.2779 19.8814C40.8509 19.2712 41.1374 18.339 41.1374 17.0847V16.5C40.2412 17.6356 38.9923 18.2034 37.3909 18.2034C36.3036 18.2034 35.3045 17.9322 34.3936 17.3898C33.4973 16.8305 32.7848 16.0508 32.2558 15.0508C31.7269 14.0508 31.4624 12.8983 31.4624 11.5932C31.4624 10.2881 31.7269 9.13559 32.2558 8.13559C32.7848 7.13559 33.4973 6.36441 34.3936 5.82204C35.3045 5.26271 36.3036 4.98305 37.3909 4.98305C39.1099 4.98305 40.4175 5.63559 41.3137 6.94068V5.18644H44.5755ZM38.0741 14.9492C38.985 14.9492 39.727 14.6441 40.3 14.0339C40.8877 13.4068 41.1815 12.5932 41.1815 11.5932C41.1815 10.5932 40.8877 9.78814 40.3 9.17797C39.727 8.55085 38.985 8.23729 38.0741 8.23729C37.1631 8.23729 36.4138 8.55085 35.8261 9.17797C35.2384 9.78814 34.9445 10.5932 34.9445 11.5932C34.9445 12.5932 35.2384 13.4068 35.8261 14.0339C36.4138 14.6441 37.1631 14.9492 38.0741 14.9492Z" fill="#080412"/>
<path d="M46.6735 0H50.1115V18.8644H46.6735V0Z" fill="#080412"/>
<path d="M57.8423 19.0678C56.5934 19.0678 55.4694 18.7712 54.4704 18.178C53.486 17.5678 52.7146 16.7288 52.1563 15.661C51.598 14.5932 51.3188 13.3814 51.3188 12.0254C51.3188 10.6695 51.598 9.45763 52.1563 8.38983C52.7146 7.32203 53.486 6.49153 54.4704 5.8983C55.4694 5.28814 56.5934 4.98305 57.8423 4.98305C59.0911 4.98305 60.2078 5.28814 61.1922 5.8983C62.1766 6.49153 62.9479 7.32203 63.5062 8.38983C64.0646 9.45763 64.3437 10.6695 64.3437 12.0254C64.3437 13.3814 64.0646 14.5932 63.5062 15.661C62.9479 16.7288 62.1766 17.5678 61.1922 18.178C60.2078 18.7712 59.0911 19.0678 57.8423 19.0678ZM57.8423 15.8136C58.7238 15.8136 59.4438 15.4746 60.0021 14.7966C60.5751 14.1017 60.8616 13.178 60.8616 12.0254C60.8616 10.8729 60.5751 9.95763 60.0021 9.27966C59.4438 8.58475 58.7238 8.23729 57.8423 8.23729C56.9607 8.23729 56.2335 8.58475 55.6605 9.27966C55.0874 9.95763 54.8009 10.8729 54.8009 12.0254C54.8009 13.178 55.0874 14.1017 55.6605 14.7966C56.2335 15.4746 56.9607 15.8136 57.8423 15.8136Z" fill="#080412"/>
<path d="M71.9463 19.0678C70.6975 19.0678 69.5735 18.7712 68.5744 18.178C67.59 17.5678 66.8186 16.7288 66.2603 15.661C65.702 14.5932 65.4229 13.3814 65.4229 12.0254C65.4229 10.6695 65.702 9.45763 66.2603 8.38983C66.8186 7.32203 67.59 6.49153 68.5744 5.8983C69.5735 5.28814 70.6975 4.98305 71.9463 4.98305C73.1952 4.98305 74.3118 5.28814 75.2962 5.8983C76.2806 6.49153 77.052 7.32203 77.6103 8.38983C78.1686 9.45763 78.4478 10.6695 78.4478 12.0254C78.4478 13.3814 78.1686 14.5932 77.6103 15.661C77.052 16.7288 76.2806 17.5678 75.2962 18.178C74.3118 18.7712 73.1952 19.0678 71.9463 19.0678ZM71.9463 15.8136C72.8279 15.8136 73.5478 15.4746 74.1061 14.7966C74.6791 14.1017 74.9656 13.178 74.9656 12.0254C74.9656 10.8729 74.6791 9.95763 74.1061 9.27966C73.5478 8.58475 72.8279 8.23729 71.9463 8.23729C71.0648 8.23729 70.3375 8.58475 69.7645 9.27966C69.1915 9.95763 68.905 10.8729 68.905 12.0254C68.905 13.178 69.1915 14.1017 69.7645 14.7966C70.3375 15.4746 71.0648 15.8136 71.9463 15.8136Z" fill="#080412"/>
<path fill-rule="evenodd" clip-rule="evenodd" d="M9.88506 1.22595C9.22993 1.22595 8.69885 1.75704 8.69885 2.41216V8.13665L4.60558 4.04266C4.14234 3.57933 3.39127 3.57933 2.92803 4.04266C2.46479 4.50598 2.46479 5.25718 2.92803 5.7205L6.97497 9.76815H1.18641C0.531176 9.76815 0 10.2993 0 10.9546C0 11.6098 0.531177 12.141 1.18642 12.141H6.90943L2.81618 16.2349C2.35294 16.6983 2.35294 17.4495 2.81618 17.9128C3.27943 18.3761 4.03049 18.3761 4.49373 17.9128L8.69885 13.7069V19.6551C8.69885 20.3103 9.22993 20.8413 9.88506 20.8413C10.5402 20.8413 11.0713 20.3103 11.0713 19.6551V13.8652L15.1182 17.9128C15.5815 18.3762 16.3325 18.3762 16.7958 17.9128C17.259 17.4495 17.259 16.6983 16.7958 16.235L12.7025 12.141H18.4255C19.0808 12.141 19.6119 11.6098 19.6119 10.9546C19.6119 10.2993 19.0808 9.76815 18.4255 9.76815H12.6369L16.6839 5.72046C17.1472 5.25713 17.1472 4.50594 16.6839 4.04261C16.2207 3.57929 15.4696 3.57929 15.0064 4.04261L11.0713 7.97841V2.41216C11.0713 1.75703 10.5402 1.22595 9.88506 1.22595Z" fill="#178ADD"/>
</svg>
