<svg width="244" height="96" viewBox="0 0 244 96" fill="none" xmlns="http://www.w3.org/2000/svg">
<path d="M82.4687 46.6767L64.1153 61.3158C64.0425 61.3739 64 61.4621 64 61.5553V67C64 69.2091 65.7909 71 68 71H184C186.209 71 188 69.2091 188 67V37.5487C188 37.4529 187.948 37.3647 187.865 37.3177L176.168 30.7298C163.877 23.8073 148.471 25.9831 138.578 36.0389L133.512 41.1882C126.532 48.2832 115.643 49.7726 107.014 44.8126C99.2253 40.3358 89.4917 41.075 82.4687 46.6767Z" fill="white"/>
<path d="M66 61L83.9063 46.3834C90.6554 40.8742 100.121 40.1493 107.63 44.5667V44.5667C115.939 49.4545 126.517 47.9996 133.198 41.05L138.173 35.8746C147.702 25.962 162.762 23.8226 174.675 30.6891L186 37.2169" stroke="#6C757D" stroke-width="4" stroke-linecap="round"/>
<rect x="64" y="78" width="12" height="4" rx="2" fill="#CED4DA"/>
<rect x="48" y="68" width="8" height="4" rx="2" fill="#CED4DA"/>
<rect x="48" y="50" width="8" height="4" rx="2" fill="#CED4DA"/>
<rect x="48" y="32" width="8" height="4" rx="2" fill="#CED4DA"/>
<rect x="48" y="14" width="8" height="4" rx="2" fill="#CED4DA"/>
<rect x="92" y="78" width="12" height="4" rx="2" fill="#CED4DA"/>
<rect x="120" y="78" width="12" height="4" rx="2" fill="#CED4DA"/>
<rect x="148" y="78" width="12" height="4" rx="2" fill="#CED4DA"/>
<rect x="176" y="78" width="12" height="4" rx="2" fill="#CED4DA"/>
</svg>
