<svg width="244" height="96" viewBox="0 0 244 96" fill="none" xmlns="http://www.w3.org/2000/svg">
<g clip-path="url(#clip0_374_2275)">
<rect x="106" y="32" width="32" height="32" rx="4" fill="white"/>
<path fill-rule="evenodd" clip-rule="evenodd" d="M126.563 44.2369C126.175 43.9188 125.827 43.5206 125.567 43.1471C125.251 42.694 124.628 42.5828 124.175 42.8987C123.722 43.2146 123.611 43.8379 123.926 44.2909C124.273 44.788 124.742 45.3296 125.295 45.7835C125.842 46.2316 126.529 46.6416 127.31 46.7816C128.13 46.9288 128.991 46.7639 129.774 46.16C130.522 45.5826 131.137 44.6527 131.636 43.3747C131.837 42.8603 131.583 42.2804 131.069 42.0795C130.554 41.8786 129.974 42.1328 129.773 42.6472C129.346 43.7418 128.905 44.3043 128.552 44.5766C128.233 44.8224 127.949 44.8643 127.663 44.813C127.337 44.7546 126.958 44.5606 126.563 44.2369Z" fill="#233043"/>
<path fill-rule="evenodd" clip-rule="evenodd" d="M118.845 46.6913C119.226 46.0654 119.527 45.3652 119.735 44.7469C119.912 44.2237 119.631 43.6563 119.108 43.4796C118.585 43.3029 118.017 43.5839 117.84 44.1072C117.667 44.6204 117.424 45.1794 117.137 45.651C116.836 46.1447 116.551 46.437 116.338 46.5545C116.247 46.6045 116.197 46.6079 116.173 46.607C116.153 46.6061 116.087 46.5998 115.967 46.5156C115.69 46.3223 115.252 45.8057 114.741 44.6211C114.522 44.114 113.934 43.8801 113.427 44.0989C112.92 44.3176 112.686 44.906 112.905 45.4131C113.463 46.7079 114.085 47.6399 114.82 48.1545C115.206 48.4242 115.634 48.5865 116.091 48.6053C116.545 48.624 116.955 48.4979 117.304 48.3058C117.969 47.9388 118.477 47.2952 118.845 46.6913Z" fill="#233043"/>
<path fill-rule="evenodd" clip-rule="evenodd" d="M122.377 50.4939C122.378 50.4911 122.379 50.4897 122.379 50.4897C122.379 50.4897 122.378 50.4911 122.377 50.4939ZM123.086 49.1358C122.837 49.0355 122.588 49.0097 122.413 49.0025C122.206 48.9939 122.005 49.0087 121.841 49.0287C121.465 49.0743 121.107 49.2168 120.802 49.4443C120.499 49.6696 120.087 50.0405 119.848 50.5283C119.723 50.7854 119.625 51.1186 119.663 51.4968C119.703 51.8895 119.88 52.2367 120.15 52.5171C120.721 53.1105 121.517 53.0554 121.975 52.9526C122.492 52.8367 123.008 52.5769 123.411 52.2639C123.616 52.1049 123.818 51.9125 123.981 51.6895C124.139 51.4734 124.301 51.1736 124.338 50.8098C124.379 50.4088 124.258 50.0072 123.972 49.6853C123.725 49.4077 123.402 49.2407 123.086 49.1358Z" fill="#233043"/>
<path fill-rule="evenodd" clip-rule="evenodd" d="M125.784 55.9376C126.256 56.2239 126.407 56.8388 126.121 57.3111C125.523 58.2979 124.773 58.9686 123.922 59.353C123.077 59.7348 122.2 59.8033 121.389 59.7019C119.8 59.5032 118.351 58.6417 117.495 57.9309C117.07 57.5781 117.011 56.9476 117.364 56.5227C117.717 56.0978 118.347 56.0394 118.772 56.3922C119.448 56.9534 120.55 57.5815 121.637 57.7174C122.164 57.7832 122.656 57.7303 123.099 57.5303C123.536 57.333 123.994 56.9616 124.41 56.2745C124.697 55.8022 125.312 55.6514 125.784 55.9376Z" fill="#233043"/>
<path d="M117.263 31.0269C117.507 33.2243 111.528 40.1628 105.903 45.6711C104.145 36.2953 104.431 29.962 117.263 31.0269Z" fill="#233043"/>
<path d="M127.676 36.3267C121.443 35.5738 117.468 32.9017 116.596 31.9257H138.185V43.0718C137.279 41.1372 133.908 37.0797 127.676 36.3267Z" fill="#233043"/>
</g>
<defs>
<clipPath id="clip0_374_2275">
<rect x="106" y="32" width="32" height="32" rx="4" fill="white"/>
</clipPath>
</defs>
</svg>
