<svg width="244" height="96" viewBox="0 0 244 96" fill="none" xmlns="http://www.w3.org/2000/svg">
<rect x="108.983" y="46" width="26.0333" height="4" rx="2" fill="#CED4DA"/>
<rect x="168.15" y="46" width="24.85" height="4" rx="2" fill="#6C757D"/>
<rect x="51" y="46" width="24.85" height="4" rx="2" fill="#CED4DA"/>
<path fill-rule="evenodd" clip-rule="evenodd" d="M90.225 43.262C90.317 43.352 90.5783 43.6134 91.009 44.046C91.4397 44.4787 91.8907 44.9367 92.362 45.42C92.834 45.9027 93.2593 46.341 93.638 46.735L94.207 47.325C94.3059 47.4093 94.3828 47.5164 94.431 47.637C94.523 47.8703 94.523 48.1298 94.431 48.363C94.3828 48.4837 94.3059 48.5908 94.207 48.675L93.638 49.265C93.2593 49.6584 92.834 50.0967 92.362 50.58C91.89 51.0634 91.439 51.5214 91.009 51.954C90.5783 52.3867 90.317 52.648 90.225 52.738C90.0329 52.9103 89.783 53.0038 89.525 53C89.3943 53.0058 89.2637 52.9856 89.1408 52.9406C89.0179 52.8957 88.9051 52.8268 88.809 52.738C88.6251 52.5705 88.5141 52.3375 88.5 52.089C88.5002 51.9549 88.5278 51.8221 88.5811 51.699C88.6344 51.5759 88.7123 51.465 88.81 51.373L92.121 48L88.811 44.627C88.7131 44.5352 88.635 44.4243 88.5815 44.3012C88.5281 44.178 88.5003 44.0453 88.5 43.911C88.5144 43.6625 88.6257 43.4294 88.81 43.262C88.9063 43.1731 89.0192 43.1042 89.1423 43.0592C89.2653 43.0142 89.3961 42.9941 89.527 43C89.7843 42.9967 90.0334 43.0903 90.225 43.262Z" fill="#606B79"/>
<path fill-rule="evenodd" clip-rule="evenodd" d="M152.225 43.262C152.317 43.352 152.578 43.6134 153.009 44.046C153.44 44.4787 153.891 44.9367 154.362 45.42C154.834 45.9027 155.259 46.341 155.638 46.735L156.207 47.325C156.306 47.4093 156.383 47.5164 156.431 47.637C156.523 47.8703 156.523 48.1298 156.431 48.363C156.383 48.4837 156.306 48.5908 156.207 48.675L155.638 49.265C155.259 49.6584 154.834 50.0967 154.362 50.58C153.89 51.0634 153.439 51.5214 153.009 51.954C152.578 52.3867 152.317 52.648 152.225 52.738C152.033 52.9103 151.783 53.0038 151.525 53C151.394 53.0058 151.264 52.9856 151.141 52.9406C151.018 52.8957 150.905 52.8268 150.809 52.738C150.625 52.5705 150.514 52.3375 150.5 52.089C150.5 51.9549 150.528 51.8221 150.581 51.699C150.634 51.5759 150.712 51.465 150.81 51.373L154.121 48L150.811 44.627C150.713 44.5352 150.635 44.4243 150.582 44.3012C150.528 44.178 150.5 44.0453 150.5 43.911C150.514 43.6625 150.626 43.4294 150.81 43.262C150.906 43.1731 151.019 43.1042 151.142 43.0592C151.265 43.0142 151.396 42.9941 151.527 43C151.784 42.9967 152.033 43.0903 152.225 43.262Z" fill="#606B79"/>
</svg>
