<svg width="244" height="96" viewBox="0 0 244 96" fill="none" xmlns="http://www.w3.org/2000/svg">
<g filter="url(#filter0_d_242_1404)">
<rect x="82" y="26" width="66" height="62" rx="4" fill="white"/>
</g>
<rect x="103" y="33" width="24.85" height="4" rx="2" fill="#CED4DA"/>
<rect x="89" y="52" width="4" height="4" rx="2" fill="#CED4DA"/>
<rect x="89" y="60" width="4" height="4" rx="2" fill="#CED4DA"/>
<rect x="89" y="68" width="4" height="4" rx="2" fill="#CED4DA"/>
<rect x="89" y="76" width="4" height="4" rx="2" fill="#CED4DA"/>
<rect x="97" y="52" width="4" height="4" rx="2" fill="#CED4DA"/>
<rect x="89" y="44" width="4" height="4" rx="2" fill="#CED4DA"/>
<rect x="97" y="60" width="4" height="4" rx="2" fill="#CED4DA"/>
<rect x="97" y="68" width="4" height="4" rx="2" fill="#CED4DA"/>
<rect x="97" y="76" width="4" height="4" rx="2" fill="#CED4DA"/>
<rect x="105" y="52" width="4" height="4" rx="2" fill="#CED4DA"/>
<rect x="97" y="44" width="4" height="4" rx="2" fill="#CED4DA"/>
<rect x="105" y="60" width="4" height="4" rx="2" fill="#CED4DA"/>
<rect x="105" y="68" width="4" height="4" rx="2" fill="#CED4DA"/>
<rect x="105" y="76" width="4" height="4" rx="2" fill="#CED4DA"/>
<rect x="113" y="76" width="4" height="4" rx="2" fill="#CED4DA"/>
<rect x="121" y="76" width="4" height="4" rx="2" fill="#CED4DA"/>
<rect x="129" y="76" width="4" height="4" rx="2" fill="#CED4DA"/>
<rect x="105" y="44" width="4" height="4" rx="2" fill="#CED4DA"/>
<rect x="113" y="52" width="4" height="4" rx="2" fill="#CED4DA"/>
<rect x="113" y="60" width="4" height="4" rx="2" fill="#CED4DA"/>
<rect x="113" y="68" width="4" height="4" rx="2" fill="#CED4DA"/>
<rect x="113" y="44" width="4" height="4" rx="2" fill="#CED4DA"/>
<rect x="121" y="52" width="4" height="4" rx="2" fill="#CED4DA"/>
<rect x="121" y="60" width="4" height="4" rx="2" fill="#CED4DA"/>
<rect x="121" y="68" width="4" height="4" rx="2" fill="#CED4DA"/>
<rect x="121" y="44" width="4" height="4" rx="2" fill="#CED4DA"/>
<rect x="129" y="52" width="4" height="4" rx="2" fill="#CED4DA"/>
<rect x="129" y="60" width="4" height="4" rx="2" fill="#CED4DA"/>
<rect x="128" y="67" width="6" height="6" rx="1" fill="#6C757D"/>
<rect x="129" y="44" width="4" height="4" rx="2" fill="#CED4DA"/>
<rect x="137" y="52" width="4" height="4" rx="2" fill="#CED4DA"/>
<rect x="137" y="60" width="4" height="4" rx="2" fill="#CED4DA"/>
<rect x="137" y="68" width="4" height="4" rx="2" fill="#CED4DA"/>
<path fill-rule="evenodd" clip-rule="evenodd" d="M91.85 37.8247C91.7887 37.7647 91.6145 37.5904 91.3273 37.302C91.0402 37.0136 90.7396 36.7082 90.4253 36.386C90.1107 36.0642 89.8271 35.772 89.5747 35.5093L89.1953 35.116C89.1294 35.0598 89.0782 34.9884 89.046 34.908C88.9847 34.7525 88.9847 34.5795 89.046 34.424C89.0782 34.3436 89.1294 34.2722 89.1953 34.216L89.5747 33.8227C89.8271 33.5605 90.1107 33.2682 90.4253 32.946C90.74 32.6238 91.0407 32.3185 91.3273 32.03C91.6145 31.7416 91.7887 31.5674 91.85 31.5074C91.9781 31.3925 92.1447 31.3302 92.3167 31.3327C92.4038 31.3288 92.4909 31.3423 92.5728 31.3723C92.6547 31.4023 92.7299 31.4482 92.794 31.5074C92.9166 31.6191 92.9906 31.7744 93 31.94C92.9999 32.0295 92.9815 32.1179 92.9459 32.2C92.9104 32.2821 92.8585 32.3561 92.7933 32.4174L90.586 34.666L92.7927 36.9147C92.8579 36.9759 92.91 37.0498 92.9456 37.1319C92.9813 37.214 92.9998 37.3025 93 37.392C92.9904 37.5577 92.9162 37.7131 92.7933 37.8247C92.7292 37.8839 92.6539 37.9299 92.5718 37.9599C92.4898 37.9899 92.4026 38.0033 92.3153 37.9993C92.1438 38.0015 91.9777 37.9392 91.85 37.8247V37.8247Z" fill="#CED4DA"/>
<path fill-rule="evenodd" clip-rule="evenodd" d="M138.15 31.1753C138.211 31.2353 138.386 31.4096 138.673 31.698C138.96 31.9864 139.26 32.2918 139.575 32.614C139.889 32.9358 140.173 33.228 140.425 33.4907L140.805 33.884C140.871 33.9402 140.922 34.0116 140.954 34.092C141.015 34.2475 141.015 34.4205 140.954 34.576C140.922 34.6564 140.871 34.7278 140.805 34.784L140.425 35.1773C140.173 35.4395 139.889 35.7318 139.575 36.054C139.26 36.3762 138.959 36.6815 138.673 36.97C138.386 37.2584 138.211 37.4326 138.15 37.4926C138.022 37.6075 137.855 37.6698 137.683 37.6673C137.596 37.6712 137.509 37.6577 137.427 37.6277C137.345 37.5977 137.27 37.5518 137.206 37.4926C137.083 37.3809 137.009 37.2256 137 37.06C137 36.9705 137.019 36.8821 137.054 36.8C137.09 36.7179 137.142 36.6439 137.207 36.5826L139.414 34.334L137.207 32.0853C137.142 32.0241 137.09 31.9502 137.054 31.8681C137.019 31.786 137 31.6975 137 31.608C137.01 31.4423 137.084 31.2869 137.207 31.1753C137.271 31.1161 137.346 31.0701 137.428 31.0401C137.51 31.0101 137.597 30.9967 137.685 31.0007C137.856 30.9985 138.022 31.0608 138.15 31.1753V31.1753Z" fill="#CED4DA"/>
<rect x="82.375" y="10.375" width="79.25" height="13.25" rx="3.625" fill="white" stroke="#ADB5BD" stroke-width="0.75"/>
<defs>
<filter id="filter0_d_242_1404" x="80" y="25" width="70" height="66" filterUnits="userSpaceOnUse" color-interpolation-filters="sRGB">
<feFlood flood-opacity="0" result="BackgroundImageFix"/>
<feColorMatrix in="SourceAlpha" type="matrix" values="0 0 0 0 0 0 0 0 0 0 0 0 0 0 0 0 0 0 127 0" result="hardAlpha"/>
<feOffset dy="1"/>
<feGaussianBlur stdDeviation="1"/>
<feComposite in2="hardAlpha" operator="out"/>
<feColorMatrix type="matrix" values="0 0 0 0 0 0 0 0 0 0 0 0 0 0 0 0 0 0 0.25 0"/>
<feBlend mode="normal" in2="BackgroundImageFix" result="effect1_dropShadow_242_1404"/>
<feBlend mode="normal" in="SourceGraphic" in2="effect1_dropShadow_242_1404" result="shape"/>
</filter>
</defs>
</svg>
