<svg width="244" height="96" viewBox="0 0 244 96" fill="none" xmlns="http://www.w3.org/2000/svg">
<rect x="98" y="40" width="16" height="16" rx="4" fill="#6C757D"/>
<path d="M106 52V44" stroke="white" stroke-width="1.5" stroke-linecap="round" stroke-linejoin="round"/>
<path d="M110 48H102" stroke="white" stroke-width="1.5" stroke-linecap="round" stroke-linejoin="round"/>
<rect x="130" y="40" width="16" height="16" rx="8" fill="#6C757D"/>
<path fill-rule="evenodd" clip-rule="evenodd" d="M136.677 44.342C136.817 44.2913 136.935 44.1895 136.993 44.0525L137.314 43.303C137.393 43.1192 137.574 43 137.774 43H138.226C138.426 43 138.607 43.1192 138.685 43.303L139.006 44.0523C139.065 44.1893 139.183 44.2912 139.323 44.3418C139.435 44.3823 139.544 44.4277 139.651 44.4779C139.786 44.5413 139.941 44.5523 140.08 44.4969L140.837 44.1941C141.022 44.1198 141.234 44.1634 141.376 44.3048L141.695 44.6242C141.837 44.7657 141.88 44.9778 141.806 45.1635L141.503 45.9205C141.448 46.0589 141.459 46.2141 141.522 46.3491C141.572 46.4559 141.618 46.5653 141.658 46.6772C141.709 46.8174 141.811 46.9348 141.948 46.9935L142.697 47.3146C142.881 47.3934 143 47.5741 143 47.7741V48.2259C143 48.4259 142.881 48.6066 142.697 48.6854L141.948 49.0065C141.811 49.0652 141.709 49.1827 141.658 49.3228C141.618 49.4347 141.572 49.5442 141.522 49.651C141.459 49.786 141.448 49.9411 141.503 50.0796L141.806 50.8365C141.88 51.0222 141.837 51.2343 141.695 51.3758L141.376 51.6952C141.234 51.8366 141.022 51.8802 140.837 51.8059L140.08 51.5031C139.941 51.4477 139.786 51.4587 139.651 51.5221C139.544 51.5723 139.435 51.6178 139.323 51.6582C139.183 51.7089 139.065 51.8108 139.006 51.9478L138.685 52.697C138.607 52.8808 138.426 53 138.226 53H137.774C137.574 53 137.393 52.8808 137.314 52.697L136.993 51.9476C136.935 51.8106 136.817 51.7088 136.677 51.658C136.565 51.6176 136.456 51.5722 136.349 51.5221C136.214 51.4587 136.059 51.4476 135.92 51.503L135.163 51.8058C134.978 51.8801 134.766 51.8366 134.624 51.6952L134.305 51.3757C134.163 51.2343 134.12 51.0222 134.194 50.8365L134.497 50.0792C134.552 49.9408 134.541 49.7856 134.478 49.6507C134.428 49.544 134.382 49.4347 134.342 49.3229C134.291 49.1828 134.189 49.0653 134.052 49.0066L133.303 48.6854C133.119 48.6066 133 48.4259 133 48.2259V47.7741C133 47.5741 133.119 47.3934 133.303 47.3146L134.053 46.9934C134.19 46.9347 134.291 46.8172 134.342 46.6771C134.382 46.5654 134.428 46.456 134.478 46.3494C134.541 46.2144 134.552 46.0593 134.497 45.9208L134.194 45.1635C134.12 44.9778 134.163 44.7657 134.305 44.6243L134.624 44.3048C134.766 44.1634 134.978 44.1199 135.163 44.1942L135.921 44.497C136.059 44.5524 136.214 44.5414 136.349 44.478C136.456 44.4279 136.565 44.3825 136.677 44.342ZM138 49.8889C139.043 49.8889 139.889 49.0433 139.889 48.0001C139.889 46.9568 139.043 46.1112 138 46.1112C136.957 46.1112 136.111 46.9568 136.111 48.0001C136.111 49.0433 136.957 49.8889 138 49.8889Z" fill="white"/>
</svg>
