<svg width="244" height="96" viewBox="0 0 244 96" fill="none" xmlns="http://www.w3.org/2000/svg">
<g clip-path="url(#clip0_1014_4619)">
<path fill-rule="evenodd" clip-rule="evenodd" d="M102.962 11.6796C89.5709 18.7118 81 32.5976 81 48H89.697C89.697 35.8614 96.4483 24.9234 107.006 19.3795L102.962 11.6796Z" fill="#BDC6D0"/>
<path fill-rule="evenodd" clip-rule="evenodd" d="M122 7C115.281 7 108.787 8.62101 102.962 11.6796L107.006 19.3795C111.59 16.9719 116.699 15.697 122 15.697V7Z" fill="#D5D9DE"/>
<path fill-rule="evenodd" clip-rule="evenodd" d="M81 48C81 70.6437 99.3563 89 122 89V80.303C104.16 80.303 89.697 65.8405 89.697 48H81Z" fill="#838B95"/>
<path fill-rule="evenodd" clip-rule="evenodd" d="M122 89C144.644 89 163 70.6437 163 48C163 25.3563 144.644 7 122 7V15.697C139.84 15.697 154.303 30.1595 154.303 48C154.303 65.8405 139.84 80.303 122 80.303V89Z" fill="#606B79"/>
</g>
<path d="M114 44.5C114 43.1193 115.119 42 116.5 42H127.5C128.881 42 130 43.1193 130 44.5V44.5C130 45.8807 128.881 47 127.5 47H116.5C115.119 47 114 45.8807 114 44.5V44.5Z" fill="#6C757D"/>
<path d="M104 52.5C104 51.6716 104.672 51 105.5 51H138.5C139.328 51 140 51.6716 140 52.5V52.5C140 53.3284 139.328 54 138.5 54H105.5C104.672 54 104 53.3284 104 52.5V52.5Z" fill="#ADB5BD"/>
<defs>
<clipPath id="clip0_1014_4619">
<rect width="82" height="82" fill="white" transform="translate(81 7)"/>
</clipPath>
</defs>
</svg>
