<svg width="244" height="96" viewBox="0 0 244 96" fill="none" xmlns="http://www.w3.org/2000/svg">
<rect x="120" y="68" width="4" height="4" rx="2" fill="#495057"/>
<path d="M58 19.5C58 17.2909 59.7909 15.5 62 15.5H182C184.209 15.5 186 17.2909 186 19.5V58.5C186 60.7091 184.209 62.5 182 62.5H62C59.7909 62.5 58 60.7091 58 58.5L58 19.5Z" fill="#E9ECEF"/>
<path d="M74 29C74 27.8954 74.8954 27 76 27H99C100.105 27 101 27.8954 101 29V29C101 30.1046 100.105 31 99 31H76C74.8954 31 74 30.1046 74 29V29Z" fill="#495057"/>
<path d="M74 39C74 37.8954 74.8954 37 76 37H158C159.105 37 160 37.8954 160 39V39C160 40.1046 159.105 41 158 41H76C74.8954 41 74 40.1046 74 39V39Z" fill="#CED4DA"/>
<path d="M74 49C74 47.8954 74.8954 47 76 47H149C150.105 47 151 47.8954 151 49V49C151 50.1046 150.105 51 149 51H76C74.8954 51 74 50.1046 74 49V49Z" fill="#CED4DA"/>
</svg>
