<svg viewBox="0 0 244 96" xmlns="http://www.w3.org/2000/svg" xml:space="preserve" style="fill-rule:evenodd;clip-rule:evenodd"><path d="M181.5 40c0-1.932-1.568-3.5-3.5-3.5H66a3.501 3.501 0 0 0-3.5 3.5v16c0 1.932 1.568 3.5 3.5 3.5h112c1.932 0 3.5-1.568 3.5-3.5V40Z" style="fill:#fff;stroke:#adb5bd;stroke-width:1px"/><path d="M136 48a2 2 0 0 0-2-2H74a2 2 0 0 0 0 4h60a2 2 0 0 0 2-2Z" style="fill:#adb5bd"/><path d="M165.046 44.859a1.043 1.043 0 0 0-1.606 0l-4.934 5.962a1.055 1.055 0 0 0 .803 1.726h9.867c.406 0 .775-.236.947-.606.172-.37.116-.807-.144-1.12l-4.933-5.962Z" style="fill:#6c757d" transform="matrix(-.50675 0 0 -.50325 252.199 72.444)"/></svg>