<svg viewBox="0 0 244 96" xmlns="http://www.w3.org/2000/svg" xml:space="preserve" style="fill-rule:evenodd;clip-rule:evenodd;stroke-linecap:round"><path d="M220 29c0-2.208-1.792-4-4-4H28c-2.208 0-4 1.792-4 4v32c0 2.208 1.792 4 4 4h188c2.208 0 4-1.792 4-4V29Z" style="fill:#e9ecef"/><path d="M180 45a2 2 0 0 0-2-2H66a2 2 0 0 0 0 4h112a2 2 0 0 0 2-2Z" style="fill:#6c757d"/><path d="m208 42-5 4.959m0-4.918L208 47" style="fill:none;fill-rule:nonzero;stroke:#adb5bd;stroke-width:2px"/><path d="M6.336.266a.502.502 0 0 0-.404.144L.282 6.06a.5.5 0 0 0 0 .707l4.95 4.95a.499.499 0 0 0 .707 0l5.65-5.65a.5.5 0 0 0 .144-.403l-.45-4.5a.5.5 0 0 0-.447-.448l-4.5-.45Zm1.725 3.673a.749.749 0 1 0 1.06-1.059.749.749 0 0 0-1.06 1.059Z" style="fill:#6c757d" transform="translate(34.13 36.598) scale(1.52277)"/></svg>