<svg width="244" height="96" viewBox="0 0 244 96" fill="none" xmlns="http://www.w3.org/2000/svg">
<rect x="53.5" y="25.5" width="137" height="47" rx="3.5" fill="white" stroke="#ADB5BD"/>
<rect x="59" y="31" width="62" height="16" rx="2" fill="#E9ECEF"/>
<rect x="77" y="38" width="28" height="2" rx="1" fill="#6C757D"/>
<path d="M115 37L111 40.9669M111 37.0331L115 41" stroke="#ADB5BD" stroke-linecap="round"/>
<rect x="63" y="35" width="8" height="8" rx="1" fill="#6C757D"/>
<rect x="123" y="31" width="62" height="16" rx="2" fill="#E9ECEF"/>
<rect x="141" y="38" width="28" height="2" rx="1" fill="#6C757D"/>
<path d="M179 37L175 40.9669M175 37.0331L179 41" stroke="#ADB5BD" stroke-linecap="round"/>
<rect x="127" y="35" width="8" height="8" rx="1" fill="#6C757D"/>
<rect x="59" y="51" width="62" height="16" rx="2" fill="#E9ECEF"/>
<rect x="77" y="58" width="28" height="2" rx="1" fill="#6C757D"/>
<path d="M115 57L111 60.9669M111 57.0331L115 61" stroke="#ADB5BD" stroke-linecap="round"/>
<rect x="63" y="55" width="8" height="8" rx="1" fill="#6C757D"/>
</svg>
