<svg width="244" height="96" viewBox="0 0 244 96" fill="none" xmlns="http://www.w3.org/2000/svg">
<g clip-path="url(#clip0_1019_4507)">
<path d="M28 60C28 58.8954 28.8954 58 30 58H34C35.1046 58 36 58.8954 36 60V76H28V60Z" fill="#606B79"/>
<path d="M46 60C46 58.8954 46.8954 58 48 58H52C53.1046 58 54 58.8954 54 60V76H46V60Z" fill="#606B79"/>
<path d="M64 44C64 42.8954 64.8954 42 66 42H70C71.1046 42 72 42.8954 72 44V76H64V44Z" fill="#838B95"/>
<path d="M82 44C82 42.8954 82.8954 42 84 42H88C89.1046 42 90 42.8954 90 44V76H82V44Z" fill="#838B95"/>
<path d="M100 44C100 42.8954 100.895 42 102 42H106C107.105 42 108 42.8954 108 44V76H100V44Z" fill="#BDC6D0"/>
<path d="M118 30C118 28.8954 118.895 28 120 28H124C125.105 28 126 28.8954 126 30V76H118V30Z" fill="#BDC6D0"/>
<path d="M136 10C136 8.89543 136.895 8 138 8H142C143.105 8 144 8.89543 144 10V76H136V10Z" fill="#838B95"/>
<path d="M154 12C154 10.8954 154.895 10 156 10H160C161.105 10 162 10.8954 162 12V76H154V12Z" fill="#838B95"/>
<path d="M172 21C172 19.8954 172.895 19 174 19H178C179.105 19 180 19.8954 180 21V76H172V21Z" fill="#838B95"/>
<path d="M190 11C190 9.89543 190.895 9 192 9H196C197.105 9 198 9.89543 198 11V76H190V11Z" fill="#606B79"/>
<path d="M208 11C208 9.89543 208.895 9 210 9H214C215.105 9 216 9.89543 216 11V76H208V11Z" fill="#606B79"/>
<path fill-rule="evenodd" clip-rule="evenodd" d="M20.1325 76.25H224H20.1325Z" fill="#BDC6D0"/>
<path d="M20.1325 76.25H224" stroke="#BDC6D0" stroke-linecap="square"/>
<path d="M29 80C29 79.4477 29.4477 79 30 79H33.4066C33.9589 79 34.4066 79.4477 34.4066 80C34.4066 80.5523 33.9589 81 33.4066 81H30C29.4477 81 29 80.5523 29 80Z" fill="#ADB5BD"/>
<path d="M47.0593 80C47.0593 79.4477 47.5071 79 48.0593 79H51.466C52.0183 79 52.466 79.4477 52.466 80C52.466 80.5523 52.0183 81 51.466 81H48.0593C47.5071 81 47.0593 80.5523 47.0593 80Z" fill="#ADB5BD"/>
<path d="M65.1187 80C65.1187 79.4477 65.5664 79 66.1187 79H69.5253C70.0776 79 70.5253 79.4477 70.5253 80C70.5253 80.5523 70.0776 81 69.5253 81H66.1187C65.5664 81 65.1187 80.5523 65.1187 80Z" fill="#ADB5BD"/>
<path d="M83.178 80C83.178 79.4477 83.6257 79 84.178 79H87.5846C88.1369 79 88.5846 79.4477 88.5846 80C88.5846 80.5523 88.1369 81 87.5846 81H84.178C83.6257 81 83.178 80.5523 83.178 80Z" fill="#ADB5BD"/>
<path d="M101.237 80C101.237 79.4477 101.685 79 102.237 79H105.644C106.196 79 106.644 79.4477 106.644 80C106.644 80.5523 106.196 81 105.644 81H102.237C101.685 81 101.237 80.5523 101.237 80Z" fill="#ADB5BD"/>
<path d="M119.297 80C119.297 79.4477 119.744 79 120.297 79H123.703C124.256 79 124.703 79.4477 124.703 80C124.703 80.5523 124.256 81 123.703 81H120.297C119.744 81 119.297 80.5523 119.297 80Z" fill="#ADB5BD"/>
<path d="M137.356 80C137.356 79.4477 137.804 79 138.356 79H141.763C142.315 79 142.763 79.4477 142.763 80C142.763 80.5523 142.315 81 141.763 81H138.356C137.804 81 137.356 80.5523 137.356 80Z" fill="#ADB5BD"/>
<path d="M155.415 80C155.415 79.4477 155.863 79 156.415 79H159.822C160.374 79 160.822 79.4477 160.822 80C160.822 80.5523 160.374 81 159.822 81H156.415C155.863 81 155.415 80.5523 155.415 80Z" fill="#ADB5BD"/>
<path d="M173.475 80C173.475 79.4477 173.922 79 174.475 79H177.881C178.434 79 178.881 79.4477 178.881 80C178.881 80.5523 178.434 81 177.881 81H174.475C173.922 81 173.475 80.5523 173.475 80Z" fill="#ADB5BD"/>
<path d="M191.534 80C191.534 79.4477 191.982 79 192.534 79H195.941C196.493 79 196.941 79.4477 196.941 80C196.941 80.5523 196.493 81 195.941 81H192.534C191.982 81 191.534 80.5523 191.534 80Z" fill="#ADB5BD"/>
<path d="M209.593 80C209.593 79.4477 210.041 79 210.593 79H214C214.552 79 215 79.4477 215 80C215 80.5523 214.552 81 214 81H210.593C210.041 81 209.593 80.5523 209.593 80Z" fill="#ADB5BD"/>
<path d="M20 87C20 86.4477 20.4477 86 21 86H28.6309C29.1832 86 29.6309 86.4477 29.6309 87C29.6309 87.5523 29.1832 88 28.6309 88H21C20.4477 88 20 87.5523 20 87Z" fill="#ADB5BD"/>
<path d="M214.369 87C214.369 86.4477 214.817 86 215.369 86H223C223.552 86 224 86.4477 224 87C224 87.5523 223.552 88 223 88H215.369C214.817 88 214.369 87.5523 214.369 87Z" fill="#ADB5BD"/>
</g>
<defs>
<clipPath id="clip0_1019_4507">
<rect width="204" height="83" fill="white" transform="translate(20 7)"/>
</clipPath>
</defs>
</svg>
